<?xml version="1.0" encoding="iso-8859-1"?>
<!-- Generator: Adobe Illustrator 16.0.0, SVG Export Plug-In . SVG Version: 6.00 Build 0)  -->
<!DOCTYPE svg PUBLIC "-//W3C//DTD SVG 1.1//EN" "http://www.w3.org/Graphics/SVG/1.1/DTD/svg11.dtd">
<svg xmlns="http://www.w3.org/2000/svg" xmlns:xlink="http://www.w3.org/1999/xlink" version="1.1" id="Capa_1" x="0px" y="0px" width="512px" height="512px" viewBox="0 0 965.238 965.238" style="enable-background:new 0 0 965.238 965.238;" xml:space="preserve">
<g>
	<path d="M482.62,3.205C216.076,3.205,0,219.28,0,485.825c0,239.694,174.741,438.574,403.783,476.209   c-47.72-113.753-38.89-271.054-38.89-271.054H336c36.029-41.839,31.778-204.863,31.778-204.863l-24.526,21.641   c0,0,18.755-129.845-1.441-163.026c-20.198-33.183,9.456-78.707,9.456-78.707s40.089,44.375,51.216,44.375   c1.961,0,3.022-1.378,2.806-4.621c-1.443-21.641-14.837-54.004-10.509-87.187c3.625-27.789,42.951-74.366,60.724-74.366   c3.449,0,6.086,1.754,7.493,5.74l92.333,134.172l31.74,76.464c0,0,79.349,47.608,85.12,59.151   c5.771,11.541,44.724,126.958,51.937,135.614c33.96,40.753,112.531,99.547,112.531,99.547   c-20.198,14.426-80.792,17.312-80.792,17.312s14.128,27.148,44.928,37.415c25.112,8.37,63.872,9.919,90.847,32.464   c46.629-74.262,73.599-162.12,73.599-256.279C965.24,219.28,749.164,3.205,482.62,3.205z M934.509,485.825   c0,75.165-18.547,148.604-53.871,214.149c-13.68-5.866-27.58-9.412-40.289-12.277c5.454-2.32,10.148-4.903,14.172-7.776   l34.193-24.426l-33.641-25.185c-0.746-0.559-73.798-55.403-105.863-92.872c-5.309-10.89-21.481-55.837-30.333-80.438   c-11.728-32.595-16.422-45.437-19.2-50.991c-4.163-8.326-10.891-16.994-55.479-45.938c-12.569-8.159-24.747-15.714-32.592-20.521   l-27.893-67.195l-1.237-2.982l-1.83-2.657L489.942,134.91c-6.604-13.337-19.393-21.417-34.438-21.417   c-11.371,0-22.888,4.605-35.21,14.082c-7.964,6.125-16.31,14.363-24.136,23.824c-8.426,10.185-28.396,36.733-31.85,63.218   c-0.833,6.387-1.161,12.653-1.118,18.762l-15.882-17.581l-21.79,33.452c-0.994,1.525-9.886,15.458-15.865,34.454   c-9.128,28.996-7.094,55.605,5.879,76.956c0.456,0.854,7.563,15.31,3.854,76.962c-2.074,34.479-6.503,65.438-6.546,65.741   l-11.954,82.763l34.861-30.76c-0.276,4.967-0.603,10.052-0.989,15.198c-5.831,77.935-19.384,97.275-22.041,100.361l-43.733,50.784   h64.531c0.006,16.734,0.498,38.95,2.276,64.289c3.502,49.902,10.655,94.771,21.348,134.079   c-34.047-9.812-66.808-23.636-97.858-41.325c-45.457-25.896-85.811-59.222-119.941-99.049   c-34.354-40.085-61.169-85.332-79.702-134.485c-19.181-50.87-28.906-104.499-28.906-159.395   c0-61.019,11.944-120.195,35.499-175.886c22.759-53.808,55.346-102.139,96.856-143.648c41.511-41.511,89.841-74.098,143.648-96.856   c55.69-23.556,114.868-35.499,175.886-35.499s120.195,11.943,175.886,35.499c53.808,22.759,102.138,55.346,143.648,96.856   c41.511,41.51,74.098,89.841,96.855,143.648C922.566,365.629,934.509,424.807,934.509,485.825z" fill="#ffffff"/>
</g>
<g>
</g>
<g>
</g>
<g>
</g>
<g>
</g>
<g>
</g>
<g>
</g>
<g>
</g>
<g>
</g>
<g>
</g>
<g>
</g>
<g>
</g>
<g>
</g>
<g>
</g>
<g>
</g>
<g>
</g>
</svg>
