<?xml version="1.0" encoding="iso-8859-1"?>
<!DOCTYPE svg PUBLIC "-//W3C//DTD SVG 1.1//EN" "http://www.w3.org/Graphics/SVG/1.1/DTD/svg11.dtd">
<svg 
 version="1.1" xmlns="http://www.w3.org/2000/svg" xmlns:xlink="http://www.w3.org/1999/xlink" x="0px" y="0px" width="512px"
	 height="512px" viewBox="0 0 512 512" style="enable-background:new 0 0 512 512;" xml:space="preserve"
><g id="7935ec95c421cee6d86eb22ecd13e9f9"><g></g><g fill="#b89981"><path style="display: inline;" d="M177.385,138.077c0,10.855-11.731,19.653-26.203,19.653h-26.21
		c-14.472,0-26.202-8.798-26.202-19.653V20.153C98.77,9.298,110.5,0.5,124.972,0.5h26.21c14.472,0,26.203,8.798,26.203,19.653
		V138.077z M413.23,20.153C413.23,9.298,401.5,0.5,387.028,0.5h-26.21c-14.472,0-26.203,8.798-26.203,19.653v117.924
		c0,10.855,11.731,19.653,26.203,19.653h26.21c14.472,0,26.202-8.798,26.202-19.653V20.153z M491.846,60.241V511.5H20.154V60.241
		h58.961v77.836c0,22.041,20.142,39.308,45.856,39.308h26.21c25.715,0,45.856-17.267,45.856-39.308V60.241h117.923v77.836
		c0,22.041,20.143,39.308,45.857,39.308h26.21c25.715,0,45.856-17.267,45.856-39.308V60.241H491.846z M452.539,432.885V236.346
		H59.462v196.539v38.793h393.077V432.885z"></path></g></g></svg>